<?xml version="1.0" encoding="UTF-8" standalone="no"?>
<svg
   width="147.84097"
   height="20"
   version="1.1"
   id="svg38"
   sodipodi:docname="colab-badge.svg"
   xml:space="preserve"
   inkscape:version="1.2.1 (9c6d41e410, 2022-07-14)"
   inkscape:export-filename="colab-badge-ex1.svg"
   inkscape:export-xdpi="1200"
   inkscape:export-ydpi="1200"
   xmlns:inkscape="http://www.inkscape.org/namespaces/inkscape"
   xmlns:sodipodi="http://sodipodi.sourceforge.net/DTD/sodipodi-0.dtd"
   xmlns="http://www.w3.org/2000/svg"
   xmlns:svg="http://www.w3.org/2000/svg"><defs
     id="defs42" /><sodipodi:namedview
     id="namedview40"
     pagecolor="#505050"
     bordercolor="#ffffff"
     borderopacity="1"
     inkscape:showpageshadow="0"
     inkscape:pageopacity="0"
     inkscape:pagecheckerboard="1"
     inkscape:deskcolor="#505050"
     showgrid="false"
     showguides="true"
     inkscape:zoom="10.34188"
     inkscape:cx="52.359919"
     inkscape:cy="4.8347109"
     inkscape:window-width="3440"
     inkscape:window-height="1377"
     inkscape:window-x="3432"
     inkscape:window-y="-8"
     inkscape:window-maximized="1"
     inkscape:current-layer="svg38"><sodipodi:guide
       position="60.840962,12.844628"
       orientation="1,0"
       id="guide902"
       inkscape:locked="false" /></sodipodi:namedview><linearGradient
     id="b"
     x2="0"
     y2="48.373547"
     gradientTransform="scale(2.4186773,0.41344912)"
     x1="0"
     y1="0"
     gradientUnits="userSpaceOnUse"><stop
       offset="0"
       stop-color="#bbb"
       stop-opacity=".1"
       id="stop2" /><stop
       offset="1"
       stop-opacity=".1"
       id="stop4" /></linearGradient><clipPath
     id="a"><rect
       width="117"
       height="20"
       rx="3"
       fill="#ffffff"
       id="rect7"
       x="0"
       y="0" /></clipPath><g
     clip-path="url(#a)"
     id="g16"
     transform="scale(1.263598,1)"><path
       fill="#555555"
       d="M 0,0 H 48.148986 V 20 H 0 Z"
       id="path10"
       style="stroke-width:1.26687" /><path
       fill="#007ec6"
       d="M 48.148986,0 H 117 V 20 H 48.148986 Z"
       id="path12"
       style="stroke-width:0.889601" /><path
       fill="url(#b)"
       d="M 0,0 H 117 V 20 H 0 Z"
       id="path14"
       style="fill:url(#b)" /></g><g
     fill="#ffffff"
     text-anchor="middle"
     font-family="'DejaVu Sans', Verdana, Geneva, sans-serif"
     font-size="110px"
     id="g36"
     transform="translate(30.840962)"><g
       id="g916"><text
         x="245"
         y="140"
         transform="scale(0.1)"
         textLength="30"
         id="text30"
         inkscape:label="text30"
         lengthAdjust="spacing"
         style="display:inline" /><text
         x="725"
         y="150"
         fill="#010101"
         fill-opacity="0.3"
         transform="scale(0.1)"
         textLength="770"
         id="text32"
         lengthAdjust="spacing">Open in Colab</text><text
         x="725"
         y="140"
         transform="scale(0.1)"
         textLength="770"
         id="text34"
         lengthAdjust="spacing">Open in Colab</text></g></g><g
     inkscape:groupmode="layer"
     id="layer1"
     inkscape:label="co"
     transform="translate(30.840962)"><svg
       x="4"
       y="0px"
       width="22"
       height="20"
       viewBox="-2 0 28 24"
       version="1.1"
       id="svg28"
       style="display:none"><path
         style="fill:#e8710a"
         d="m 1.977,16.77 c -2.667,-2.277 -2.605,-7.079 0,-9.357 0.942,0.644 1.545,1.662 2.513,2.278 -1.152,1.6 -1.146,3.201 -0.004,4.803 -0.964,0.617 -1.568,1.632 -2.509,2.276 z"
         id="path18" /><path
         style="fill:#f9ab00"
         d="M 12.257,17.114 C 10.49,15.481 9.772,13.456 10.139,11.094 10.59,8.184 12.278,6.201 15.085,5.416 17.65,4.698 20.049,5.199 21.963,7.235 21.079,7.978 20.256,8.782 19.529,9.681 18.488,8.827 17.319,8.435 16,8.856 c -2.404,0.767 -3.046,3.241 -1.494,5.644 -0.241,0.275 -0.493,0.541 -0.721,0.826 -0.49,0.613 -1.274,0.974 -1.528,1.788 z"
         id="path20" /><path
         style="fill:#e8710a"
         d="m 19.529,9.682 c 0.727,-0.899 1.55,-1.703 2.434,-2.446 2.703,2.783 2.701,7.031 -0.005,9.764 -2.648,2.674 -6.936,2.725 -9.701,0.115 0.254,-0.814 1.038,-1.175 1.528,-1.788 0.228,-0.285 0.48,-0.552 0.721,-0.826 1.053,0.916 2.254,1.268 3.6,0.83 2.396,-0.78 3.045,-3.404 1.423,-5.649 z"
         id="path22" /><path
         style="fill:#f9ab00"
         d="M 4.49,9.691 C 3.522,9.075 2.919,8.057 1.977,7.413 4.186,5.015 7.698,4.471 10.453,6.058 11.008,6.378 11.172,6.664 10.738,7.186 10.581,7.374 10.48,7.608 10.347,7.817 10.048,8.287 9.838,8.884 9.418,9.188 8.933,9.539 8.523,8.847 8.021,8.746 6.673,8.475 5.509,8.787 4.49,9.691 Z"
         id="path24" /><path
         style="fill:#f9ab00"
         d="m 1.977,16.77 c 0.941,-0.644 1.545,-1.659 2.509,-2.277 1.373,1.152 2.85,1.433 4.45,0.499 0.332,-0.194 0.503,-0.088 0.673,0.19 0.386,0.635 0.753,1.285 1.181,1.89 0.34,0.48 0.222,0.715 -0.253,1.006 -2.697,1.652 -6.332,1.11 -8.56,-1.308 z"
         id="path26" /></svg><g
       style="display:block"
       id="g1033"
       transform="matrix(0.78940323,0,0,0.78940323,-25.643281,0.52778159)"><g
         id="g1019"><path
           d="M 4.54,9.46 2.19,7.1 a 6.93,6.93 0 0 0 0,9.79 L 4.55,14.53 A 3.59,3.59 0 0 1 4.54,9.46 Z"
           fill="#e8710a"
           id="path1009" /><path
           d="m 2.19,7.1 2.35,2.36 a 3.59,3.59 0 0 1 5.08,0 l 1.71,-2.93 v 0 l -0.1,-0.08 v 0 A 6.93,6.93 0 0 0 2.19,7.1 Z"
           fill="#f9ab00"
           id="path1011" /><path
           d="m 11.34,17.46 v 0 L 9.62,14.54 a 3.59,3.59 0 0 1 -5.08,0 L 2.19,16.9 a 6.93,6.93 0 0 0 9,0.65 l 0.11,-0.09"
           fill="#f9ab00"
           id="path1013" /><path
           d="m 12,7.1 a 6.93,6.93 0 0 0 0,9.79 l 2.36,-2.36 A 3.5921024,3.5921024 0 1 1 19.44,9.45 L 21.81,7.1 A 6.93,6.93 0 0 0 12,7.1 Z"
           fill="#f9ab00"
           id="path1015" /><path
           d="m 21.81,7.1 -2.35,2.36 a 3.5921024,3.5921024 0 0 1 -5.08,5.08 L 12,16.9 a 6.9331829,6.9331829 0 0 0 9.81,-9.8 z"
           fill="#e8710a"
           id="path1017" /></g></g></g><text
     xml:space="preserve"
     style="font-style:normal;font-variant:normal;font-weight:normal;font-stretch:normal;font-size:13.3333px;font-family:sans-serif;-inkscape-font-specification:sans-serif;letter-spacing:0.07px;fill:#000000;stroke:#ffffff;stroke-width:0.5;stroke-dasharray:none"
     x="30.678534"
     y="14.557281"
     id="text1308"><tspan
       sodipodi:role="line"
       id="tspan1306"
       x="30.678534"
       y="14.557281"
       style="font-style:normal;font-variant:normal;font-weight:normal;font-stretch:normal;font-size:13.3333px;font-family:'Cascadia Code';-inkscape-font-specification:'Cascadia Code, Normal';font-variant-ligatures:normal;font-variant-caps:normal;font-variant-numeric:normal;font-variant-east-asian:normal;fill:#ffffff;fill-opacity:1;stroke:none;stroke-width:0.5;stroke-dasharray:none">ex9</tspan></text></svg>
